<svg xmlns="http://www.w3.org/2000/svg" width="212" height="212" viewBox="0 0 212 212" fill="none"><circle cx="105.635" cy="107.635" r="94.6346" fill="#0050A4"></circle><path d="M50.6631 123C50.4231 123 50.2671 122.88 50.1951 122.64L42.6351 98.304L42.5991 98.16C42.5991 97.92 42.7311 97.8 42.9951 97.8H46.5591C46.8231 97.8 46.9911 97.92 47.0631 98.16L52.4631 116.952C52.4871 117.024 52.5231 117.06 52.5711 117.06C52.6191 117.06 52.6551 117.024 52.6791 116.952L58.0431 98.16C58.1151 97.92 58.2831 97.8 58.5471 97.8H62.0391C62.1831 97.8 62.2911 97.848 62.3631 97.944C62.4351 98.04 62.4471 98.16 62.3991 98.304L54.7311 122.64C54.6591 122.88 54.5031 123 54.2631 123H50.6631Z" fill="white"></path><path d="M78.2282 123C77.9882 123 77.8321 122.88 77.7602 122.64L76.5722 118.788C76.5242 118.692 76.4641 118.644 76.3922 118.644H66.8882C66.8162 118.644 66.7562 118.692 66.7082 118.788L65.5202 122.64C65.4482 122.88 65.2922 123 65.0522 123H61.4522C61.3082 123 61.2002 122.964 61.1282 122.892C61.0562 122.796 61.0442 122.664 61.0922 122.496L68.9042 98.16C68.9762 97.92 69.1322 97.8 69.3722 97.8H73.8722C74.1122 97.8 74.2682 97.92 74.3402 98.16L82.1882 122.496C82.2122 122.544 82.2242 122.604 82.2242 122.676C82.2242 122.892 82.0922 123 81.8282 123H78.2282ZM67.8242 115.152C67.8002 115.296 67.8482 115.368 67.9682 115.368H75.2761C75.4202 115.368 75.4682 115.296 75.4202 115.152L71.7122 103.092C71.6882 102.996 71.6522 102.948 71.6042 102.948C71.5562 102.948 71.5202 102.996 71.4962 103.092L67.8242 115.152Z" fill="white"></path><path d="M86.3799 123C86.2599 123 86.1519 122.964 86.0559 122.892C85.9839 122.796 85.9479 122.688 85.9479 122.568V98.232C85.9479 98.112 85.9839 98.016 86.0559 97.944C86.1519 97.848 86.2599 97.8 86.3799 97.8H89.6919C89.8119 97.8 89.9079 97.848 89.9799 97.944C90.0759 98.016 90.1239 98.112 90.1239 98.232V119.22C90.1239 119.34 90.1839 119.4 90.3039 119.4H102.364C102.484 119.4 102.58 119.448 102.652 119.544C102.748 119.616 102.796 119.712 102.796 119.832V122.568C102.796 122.688 102.748 122.796 102.652 122.892C102.58 122.964 102.484 123 102.364 123H86.3799Z" fill="white"></path><path d="M115.334 123.288C113.558 123.288 111.986 122.94 110.618 122.244C109.25 121.548 108.182 120.564 107.414 119.292C106.67 117.996 106.298 116.508 106.298 114.828V98.232C106.298 98.112 106.334 98.016 106.406 97.944C106.502 97.848 106.61 97.8 106.73 97.8H110.042C110.162 97.8 110.258 97.848 110.33 97.944C110.426 98.016 110.474 98.112 110.474 98.232V114.9C110.474 116.316 110.918 117.468 111.806 118.356C112.694 119.244 113.87 119.688 115.334 119.688C116.798 119.688 117.974 119.244 118.862 118.356C119.75 117.468 120.194 116.316 120.194 114.9V98.232C120.194 98.112 120.23 98.016 120.302 97.944C120.398 97.848 120.506 97.8 120.626 97.8H123.938C124.058 97.8 124.154 97.848 124.226 97.944C124.322 98.016 124.37 98.112 124.37 98.232V114.828C124.37 116.508 123.998 117.996 123.254 119.292C122.51 120.564 121.454 121.548 120.086 122.244C118.718 122.94 117.134 123.288 115.334 123.288Z" fill="white"></path><path d="M146.465 100.968C146.465 101.088 146.417 101.196 146.321 101.292C146.249 101.364 146.153 101.4 146.033 101.4H133.757C133.637 101.4 133.577 101.46 133.577 101.58V108.312C133.577 108.432 133.637 108.492 133.757 108.492H142.001C142.121 108.492 142.217 108.54 142.289 108.636C142.385 108.708 142.433 108.804 142.433 108.924V111.66C142.433 111.78 142.385 111.888 142.289 111.984C142.217 112.056 142.121 112.092 142.001 112.092H133.757C133.637 112.092 133.577 112.152 133.577 112.272V119.22C133.577 119.34 133.637 119.4 133.757 119.4H146.033C146.153 119.4 146.249 119.448 146.321 119.544C146.417 119.616 146.465 119.712 146.465 119.832V122.568C146.465 122.688 146.417 122.796 146.321 122.892C146.249 122.964 146.153 123 146.033 123H129.833C129.713 123 129.605 122.964 129.509 122.892C129.437 122.796 129.401 122.688 129.401 122.568V98.232C129.401 98.112 129.437 98.016 129.509 97.944C129.605 97.848 129.713 97.8 129.833 97.8H146.033C146.153 97.8 146.249 97.848 146.321 97.944C146.417 98.016 146.465 98.112 146.465 98.232V100.968Z" fill="white"></path><path d="M158.842 123.288C156.97 123.288 155.338 122.988 153.946 122.388C152.554 121.788 151.474 120.948 150.706 119.868C149.962 118.788 149.59 117.516 149.59 116.052V115.152C149.59 115.032 149.626 114.936 149.698 114.864C149.794 114.768 149.902 114.72 150.022 114.72H153.226C153.346 114.72 153.442 114.768 153.514 114.864C153.61 114.936 153.658 115.032 153.658 115.152V115.836C153.658 116.94 154.15 117.864 155.134 118.608C156.118 119.328 157.462 119.688 159.166 119.688C160.63 119.688 161.734 119.376 162.478 118.752C163.222 118.128 163.594 117.324 163.594 116.34C163.594 115.668 163.39 115.104 162.982 114.648C162.574 114.168 161.986 113.736 161.218 113.352C160.474 112.968 159.346 112.488 157.834 111.912C156.13 111.288 154.75 110.7 153.694 110.148C152.638 109.596 151.75 108.852 151.03 107.916C150.334 106.956 149.986 105.768 149.986 104.352C149.986 102.24 150.754 100.572 152.29 99.348C153.826 98.124 155.878 97.512 158.446 97.512C160.246 97.512 161.83 97.824 163.198 98.448C164.59 99.072 165.67 99.948 166.438 101.076C167.206 102.18 167.59 103.464 167.59 104.928V105.54C167.59 105.66 167.542 105.768 167.446 105.864C167.374 105.936 167.278 105.972 167.158 105.972H163.918C163.798 105.972 163.69 105.936 163.594 105.864C163.522 105.768 163.486 105.66 163.486 105.54V105.144C163.486 104.016 163.018 103.068 162.082 102.3C161.17 101.508 159.898 101.112 158.266 101.112C156.946 101.112 155.914 101.388 155.17 101.94C154.45 102.492 154.09 103.272 154.09 104.28C154.09 105 154.282 105.588 154.666 106.044C155.05 106.5 155.626 106.92 156.394 107.304C157.162 107.664 158.35 108.132 159.958 108.708C161.662 109.356 163.018 109.944 164.026 110.472C165.058 111 165.934 111.744 166.654 112.704C167.398 113.64 167.77 114.816 167.77 116.232C167.77 118.392 166.966 120.108 165.358 121.38C163.774 122.652 161.602 123.288 158.842 123.288Z" fill="white"></path><path d="M178.363 38.6335L183.451 33.5455L178.455 28.5493L173.367 33.6373C155.981 17.3965 133.31 7.99062 109.533 7.155V0H102.467V7.155C78.6905 7.99062 56.0185 17.3965 38.6335 33.6373L33.5455 28.5493L28.5493 33.5455L33.6373 38.6335C17.3948 56.0175 7.98872 78.69 7.155 102.467H0V109.533H7.155C7.98872 133.31 17.3948 155.983 33.6373 173.367L28.5493 178.455L33.5455 183.451L38.6335 178.363C56.0185 194.604 78.6905 204.009 102.467 204.845V212H109.533V204.845C133.312 204.005 155.984 194.592 173.367 178.345L178.455 183.433L183.451 178.437L178.363 173.349C194.601 155.969 204.007 133.304 204.845 109.533H212V102.467H204.845C204.011 78.69 194.605 56.0175 178.363 38.6335ZM173.367 168.37L168.462 163.466L163.466 168.462L168.37 173.37C152.314 188.29 131.436 196.951 109.533 197.778V190.8H102.467V197.778C80.5642 196.951 59.6861 188.29 43.6296 173.37L48.5339 168.462L43.5377 163.466L38.6335 168.37C23.7127 152.314 15.0502 131.436 14.2217 109.533H21.2V102.467H14.2217C15.0502 80.5637 23.7127 59.6856 38.6335 43.6296L43.5377 48.5339L48.5339 43.5377L43.6296 38.6299C59.6861 23.7104 80.5642 15.0493 102.467 14.2217V21.2H109.533V14.2217C131.436 15.0493 152.314 23.7104 168.37 38.6299L163.466 43.5377L168.462 48.5339L173.367 43.6296C188.287 59.6856 196.95 80.5637 197.778 102.467H190.8V109.533H197.778C196.95 131.436 188.287 152.314 173.367 168.37Z" fill="#F37B20"></path><path d="M7.06667 7.06667H31.8V0H3.53333C2.59624 0 1.69752 0.372261 1.03489 1.03489C0.372261 1.69752 0 2.59624 0 3.53333V31.8H7.06667V7.06667Z" fill="#F37B20"></path><path d="M208.467 0H180.2V7.06667H204.934V31.8H212V3.53333C212 2.59624 211.628 1.69752 210.965 1.03489C210.303 0.372261 209.404 0 208.467 0Z" fill="#F37B20"></path><path d="M7.06667 180.2H0V208.467C0 209.404 0.372261 210.302 1.03489 210.965C1.69752 211.628 2.59624 212 3.53333 212H31.8V204.933H7.06667V180.2Z" fill="#F37B20"></path><path d="M204.934 204.933H180.2V212H208.467C209.404 212 210.303 211.628 210.965 210.965C211.628 210.302 212 209.404 212 208.467V180.2H204.934V204.933Z" fill="#F37B20"></path></svg>